/* XPM */
static char *Free_Converter_com_ant_28764131[] = {
/* columns rows colors chars-per-pixel */
"49 32 2 1 ",
"  c red",
". c None",
/* pixels */
"....    ................................    .....",
"....    ................................    .....",
"....    ................................    .....",
"....    ................................    .....",
"    ....    ....                ....    ....    .",
"    ....    ....                ....    ....    .",
"    ....    ....                ....    ....    .",
"    ....    ....                ....    ....    .",
"............    ................    .............",
"............    ................    .............",
"............    ................    .............",
"............    ................    .............",
"........    ....    ........    ....    .........",
"........    ....    ........    ....    .........",
"........    ....    ........    ....    .........",
"........    ....    ........    ....    .........",
"........    ........................    .........",
"........    ........................    .........",
"........    ........................    .........",
"........    ........................    .........",
"............    ................    .............",
"............    ................    .............",
"............    ................    .............",
"............    ................    .............",
"................    ........    .................",
"................    ........    .................",
"................    ........    .................",
"................    ........    .................",
"....................        .....................",
"....................        .....................",
"....................        .....................",
"....................        ....................."
};
